<svg id="icon" height="512" viewBox="0 0 128 128" width="512" xmlns="http://www.w3.org/2000/svg"><rect fill="#e1b378" height="6.306" rx="3.153" transform="matrix(-.707 -.707 .707 -.707 42.68 205.968)" width="87.975" x="20.01" y="90.992"/><g opacity=".5"><path d="m95.9 123.88a3.147 3.147 0 0 1 -5.26 1.37l-57.75-57.75a3.163 3.163 0 0 1 0-4.46 3.041 3.041 0 0 1 1.38-.8 3.157 3.157 0 0 0 .8 3.09l57.75 57.75a3.13 3.13 0 0 0 3.08.8z" fill="#bd8d5a"/></g><path d="m92.872 127.17a4.14 4.14 0 0 1 -2.937-1.214l-57.748-57.75a4.153 4.153 0 0 1 5.873-5.873l57.749 57.75a4.151 4.151 0 0 1 -2.937 7.087zm-57.749-64.052a2.152 2.152 0 0 0 -1.523 3.674l57.749 57.75a2.153 2.153 0 1 0 3.045-3.044l-57.748-57.75a2.147 2.147 0 0 0 -1.523-.63z" fill="#2f3a5a"/><rect fill="#e1b378" height="6.306" rx="3.153" transform="matrix(.707 -.707 .707 .707 -47.826 72.827)" width="87.975" x="20.01" y="90.992"/><g opacity=".5"><path d="m96.02 65.27a3.167 3.167 0 0 1 -.92 2.23l-57.75 57.75a3.157 3.157 0 0 1 -4.46 0 2.969 2.969 0 0 1 -.78-1.3 3.141 3.141 0 0 0 3.18-.77l57.74-57.75a3.118 3.118 0 0 0 .93-2.23 2.969 2.969 0 0 0 -.15-.93 2.878 2.878 0 0 1 1.29.77 3.166 3.166 0 0 1 .92 2.23z" fill="#bd8d5a"/></g><path d="m35.123 127.17a4.151 4.151 0 0 1 -2.937-7.087l57.749-57.75a4.153 4.153 0 1 1 5.873 5.873l-57.748 57.75a4.14 4.14 0 0 1 -2.937 1.214zm57.749-64.052a2.147 2.147 0 0 0 -1.522.629l-57.75 57.753a2.153 2.153 0 0 0 3.045 3.044l57.749-57.75a2.152 2.152 0 0 0 -1.522-3.674z" fill="#2f3a5a"/><path d="m95.97 10.166a130.7 130.7 0 0 1 -63.945-.066v40.429a142.534 142.534 0 0 1 63.945-.062z" fill="#dbe2eb"/><path d="m95.97 10.17v40.3a142.455 142.455 0 0 0 -63.94.06v-6.62a141.841 141.841 0 0 1 58.63 1.03v-33.55q2.655-.54 5.31-1.22z" fill="#AE0310"/><path d="m95.97 10.166a130.7 130.7 0 0 1 -63.945-.066v40.429a142.534 142.534 0 0 1 63.945-.062z" fill="#AE0310"/><path d="m32.025 51.529a1 1 0 0 1 -1-1v-40.429a1 1 0 0 1 1.233-.972c21.863 5.251 43.216 5.274 63.462.065a1 1 0 0 1 1.249.968v40.3a1 1 0 0 1 -1.215.977 141.929 141.929 0 0 0 -63.5.058 1 1 0 0 1 -.229.033zm1-40.161v37.9a143.837 143.837 0 0 1 61.944-.043v-37.776c-19.809 4.88-40.635 4.851-61.944-.081z" fill="#2f3a5a"/><path d="m97.656 1.828a2.585 2.585 0 0 1 2.585 2.585v59.833a0 0 0 0 1 0 0h-5.17a0 0 0 0 1 0 0v-59.833a2.585 2.585 0 0 1 2.585-2.585z" fill="#e1b378"/><g opacity=".5"><path d="m98.95 2.18a2.572 2.572 0 0 0 -1.29 2.23v59.84h-2.59v-59.84a2.582 2.582 0 0 1 3.88-2.23z" fill="#bd8d5a"/></g><path d="m30.816 1.828a2.585 2.585 0 0 1 2.584 2.585v59.833a0 0 0 0 1 0 0h-5.17a0 0 0 0 1 0 0v-59.833a2.585 2.585 0 0 1 2.585-2.585z" fill="#e1b378"/><g opacity=".5"><path d="m33.4 4.41v59.84h-2.53v-59.84a2.562 2.562 0 0 0 -.76-1.82 2.382 2.382 0 0 0 -.56-.43 2.611 2.611 0 0 1 1.27-.33 2.595 2.595 0 0 1 2.58 2.58z" fill="#bd8d5a"/></g><g fill="#2f3a5a"><path d="m33.4 65.246h-5.17a1 1 0 0 1 -1-1v-59.833a3.585 3.585 0 1 1 7.171 0v59.833a1 1 0 0 1 -1.001 1zm-4.171-2h3.171v-58.833a1.585 1.585 0 1 0 -3.171 0z"/><path d="m100.241 65.246h-5.17a1 1 0 0 1 -1-1v-59.833a3.585 3.585 0 1 1 7.17 0v59.833a1 1 0 0 1 -1 1zm-4.17-2h3.17v-58.833a1.585 1.585 0 1 0 -3.17 0z"/><path d="m33.4 65.246a1 1 0 0 1 -1-1v-59.833a1 1 0 0 1 2 0v59.833a1 1 0 0 1 -1 1z"/></g><rect fill="#e1b378" height="6.306" rx="3.153" width="87.975" x="20.01" y="62.117"/><g opacity=".75"><path d="m107.99 65.27a3.158 3.158 0 0 1 -3.16 3.15h-81.67a3.148 3.148 0 0 1 -3.1-2.59 3.165 3.165 0 0 0 1.11.2h81.67a3.141 3.141 0 0 0 3.15-3.15 3.433 3.433 0 0 0 -.05-.56 3.15 3.15 0 0 1 2.05 2.95z" fill="#bd8d5a"/></g><path d="m104.832 69.423h-81.669a4.153 4.153 0 1 1 0-8.306h81.669a4.153 4.153 0 1 1 0 8.306zm-81.669-6.306a2.153 2.153 0 1 0 0 4.306h81.669a2.153 2.153 0 1 0 0-4.306z" fill="#2f3a5a"/><path d="m108.985 65.27h-2v-32.77a1.186 1.186 0 0 0 -1.185-1.185h-5.56v-2h5.56a3.188 3.188 0 0 1 3.185 3.185z" fill="#2f3a5a"/><path d="m21.486 65.27h-2v-32.77a3.188 3.188 0 0 1 3.185-3.185h5.56v2h-5.56a1.186 1.186 0 0 0 -1.185 1.185z" fill="#2f3a5a"/></svg>