<svg width="286" height="287" viewBox="0 0 286 287" fill="none" xmlns="http://www.w3.org/2000/svg">
<g clip-path="url(#clip0_9_237)">
<path d="M286 143.364C286.019 159.689 283.25 175.898 277.814 191.287C277.79 191.358 277.766 191.423 277.739 191.495V191.498C273.668 202.947 268.155 213.828 261.333 223.876C260.151 225.626 258.927 227.348 257.661 229.042C256.269 230.914 254.832 232.75 253.351 234.548C251.986 236.206 250.584 237.833 249.146 239.428C247.437 241.328 245.678 243.179 243.868 244.982C239.607 249.236 235.082 253.217 230.322 256.9C229.486 257.551 228.641 258.19 227.788 258.818C225.801 260.289 223.774 261.708 221.708 263.074C217.163 266.086 212.448 268.833 207.588 271.301C206.749 271.731 205.903 272.153 205.054 272.561C201.769 274.152 198.418 275.615 195 276.951C194.025 277.336 193.047 277.707 192.058 278.064C191.892 278.129 191.725 278.19 191.555 278.248C179.834 282.489 167.608 285.166 155.191 286.21C154.328 286.288 153.464 286.354 152.599 286.407C151.682 286.472 150.764 286.524 149.844 286.564C149.117 286.602 148.394 286.629 147.664 286.649C147.514 286.656 147.361 286.663 147.212 286.663C146.23 286.694 145.245 286.713 144.257 286.721C143.839 286.724 143.421 286.728 143 286.728C142.803 286.728 142.606 286.728 142.409 286.724C139.559 286.714 136.731 286.621 133.924 286.445C133.866 286.442 133.809 286.435 133.751 286.435C132.745 286.367 131.743 286.295 130.745 286.207C127.188 285.907 123.671 285.476 120.191 284.913C119.39 284.787 118.59 284.65 117.793 284.504C114.332 283.891 110.916 283.152 107.545 282.287C106.543 282.032 105.547 281.765 104.556 281.487C90.7828 277.64 77.6668 271.732 65.6509 263.963C63.5857 262.632 61.559 261.247 59.5708 259.809C59.3263 259.638 59.0851 259.461 58.844 259.284C54.0144 255.754 49.4097 251.925 45.0569 247.818C42.9951 245.877 40.9933 243.875 39.0515 241.811C13.9255 215.229 -0.0546789 179.986 -2.34511e-05 143.364C-2.34511e-05 64.1868 64.0239 0 143 0C221.976 0 286 64.1868 286 143.364Z" fill="#F2F2F2"/>
<path d="M160.445 36.5484C163.309 31.8009 166.701 26.732 172.015 25.1818C178.168 23.3865 184.489 26.9528 189.85 30.472C205.885 40.9968 221.326 52.4026 236.103 64.6373L236.087 64.8215C224.582 64.0261 213.077 63.2307 201.573 62.4353C193.26 61.8606 184.662 61.2067 177.317 57.2644C174.529 55.7685 171.812 53.7703 168.653 53.631C164.729 53.458 161.307 56.2058 158.618 59.0765C142.712 76.0579 138.109 102.026 120.263 116.946C131.516 89.1238 144.952 62.2403 160.445 36.5484V36.5484Z" fill="#FEEC8D"/>
<path d="M62.6705 180.581C64.4295 178.354 65.1482 177.833 66.8834 175.586C81.0112 157.267 94.2902 138.329 106.72 118.773C115.164 105.491 123.188 91.9542 130.794 78.1622C134.415 71.6054 137.936 64.997 141.359 58.3372C144.014 53.1734 146.611 47.9787 149.148 42.7531C149.874 41.2605 150.579 39.7611 151.28 38.2583C152.933 34.7242 154.556 31.173 156.298 27.687C158.282 23.7138 160.699 19.5484 164.344 16.8789C166.002 15.6142 167.986 14.849 170.063 14.6727C173.03 14.4806 175.768 15.7089 178.341 17.0505C197.171 26.8944 214.8 39.2362 230.745 53.2797C246.731 67.3549 261.02 83.2564 273.32 100.66C273.697 101.199 274.586 100.684 274.207 100.142C272.711 98.0216 271.186 95.924 269.631 93.8494C256.727 76.6323 241.845 60.9988 225.293 47.2718C217.099 40.4743 208.518 34.1585 199.595 28.3561C195.053 25.4053 190.426 22.5929 185.713 19.9189C183.338 18.5705 180.953 17.2392 178.526 15.9903C176.148 14.7654 173.622 13.664 170.904 13.6228C161.657 13.4787 156.869 23.9779 153.58 31.0426C152.547 33.266 151.5 35.4825 150.442 37.6921C146.441 46.0812 142.286 54.3937 137.977 62.6296C135.318 67.7145 132.601 72.7697 129.825 77.7951C121.187 93.4445 112.006 108.777 102.281 123.793C89.3995 143.683 76.6202 161.254 61.9449 179.854C61.541 180.369 62.2631 181.103 62.6705 180.581Z" fill="#FEEC8D"/>
<path d="M113.852 97.0908L100.074 92.0388L93.2334 89.5305C91.0055 88.7135 88.7831 87.7835 86.48 87.1986C84.4437 86.6814 82.3747 86.5968 80.3673 87.2767C78.596 87.934 76.9746 88.9416 75.5995 90.2397C74.1947 91.5366 72.8876 92.9361 71.6889 94.4265C70.1996 96.2209 68.7323 98.0341 67.2584 99.8412C61.1753 107.3 55.1319 114.79 49.1284 122.313C43.125 129.836 37.1617 137.391 31.2386 144.978C25.301 152.584 19.4042 160.221 13.5482 167.89C12.8309 168.829 12.1141 169.769 11.398 170.71C11.0023 171.229 10.1102 170.717 10.5115 170.19C16.4106 162.444 22.3509 154.73 28.3323 147.047C34.3284 139.346 40.3659 131.677 46.4448 124.042C52.5237 116.406 58.6436 108.803 64.8046 101.234C66.3394 99.3482 67.8769 97.4645 69.4168 95.5829C70.7158 93.9957 72.0002 92.3914 73.425 90.9141C76.0403 88.2024 79.3078 85.806 83.219 85.7409C85.5186 85.7027 87.7441 86.4343 89.8807 87.2092C92.184 88.0446 94.4818 88.8956 96.7822 89.7391L110.656 94.8264L114.124 96.0983C114.74 96.324 114.474 97.3191 113.852 97.0908V97.0908Z" fill="#FEEC8D"/>
<path d="M76.1183 97.1414C77.4745 95.4863 78.9408 93.7533 80.9693 93.0811L82.8633 93.1559C68.4462 118.696 48.9748 141.013 25.6443 158.737C42.4689 138.205 59.2936 117.673 76.1183 97.1414Z" fill="#FEEC8D"/>
<path d="M168.218 70.6985C168.219 73.3082 167.581 75.8783 166.36 78.1832C165.139 80.488 163.372 82.4571 161.214 83.9176C159.057 85.378 156.575 86.2853 153.986 86.5596C151.398 86.8339 148.781 86.4669 146.367 85.4909C143.953 84.5149 141.814 82.9596 140.14 80.9616C138.465 78.9636 137.305 76.5841 136.762 74.0318C136.219 71.4795 136.309 68.8325 137.024 66.3232C137.739 63.8139 139.058 61.519 140.864 59.6399C140.89 59.6145 140.915 59.589 140.941 59.5635C141.068 59.4295 141.195 59.2956 141.329 59.168C141.33 59.168 141.331 59.1679 141.331 59.1676C141.332 59.1672 141.333 59.1668 141.333 59.1662C141.334 59.1656 141.334 59.1649 141.335 59.1641C141.335 59.1633 141.335 59.1625 141.335 59.1616C141.501 59.0086 141.666 58.8555 141.838 58.7089C144.136 56.6891 146.966 55.376 149.989 54.927C153.012 54.478 156.1 54.912 158.883 56.177C161.667 57.4421 164.028 59.4846 165.683 62.06C167.339 64.6354 168.219 67.6346 168.218 70.6984V70.6985Z" fill="#2F2E41"/>
<path d="M157.826 83.841C163.034 78.62 163.034 70.1549 157.826 64.9339C152.618 59.7128 144.175 59.7128 138.967 64.9339C133.759 70.1549 133.759 78.62 138.967 83.841C144.175 89.0621 152.618 89.0621 157.826 83.841Z" fill="#9E616A"/>
<path d="M157.925 61.5306C155.859 59.5925 153.29 58.278 150.512 57.7383C147.734 57.1986 144.861 57.4555 142.222 58.4794C142.144 58.5101 142.066 58.5441 141.988 58.5816C141.984 58.5816 141.984 58.585 141.981 58.585C141.726 58.6906 141.468 58.7995 141.22 58.9187L141.067 58.9936V59.0141C141.04 59.0345 141.01 59.0583 140.979 59.0788C140.917 59.1371 140.841 59.1792 140.758 59.2014C138.194 59.2354 136.105 60.1072 134.556 61.7928C132.487 64.0403 131.516 67.6738 131.815 72.0258L131.822 72.1586L131.937 72.2335C133.031 72.918 134.067 73.5207 135.065 74.0485C135.656 74.3652 136.23 74.6547 136.801 74.9203C136.869 74.9509 136.937 74.985 137.005 75.0156C142.779 77.6888 148.061 78.1724 153.136 76.4799L153.231 76.4493L155.388 72.826C155.61 74.0639 156.204 75.2043 157.09 76.0946C157.976 76.9849 159.113 77.5827 160.347 77.808L161.244 77.9681L162.558 78.1996L162.612 77.951C163.917 72.0598 162.032 65.4637 157.925 61.5306Z" fill="#2F2E41"/>
<path d="M190.685 89.5909C186.147 87.2426 191.983 78.7199 190.81 73.7369C189.638 68.754 181.192 67.1513 180.654 62.0599C180.116 56.9686 178.85 51.7174 175.499 47.854C173.358 45.3854 170.203 43.5629 166.954 43.8721C165.855 43.9767 164.791 44.3176 163.835 44.8716C162.879 45.4255 162.054 46.1795 161.415 47.0822C160.775 47.9848 160.338 49.015 160.132 50.1025C159.926 51.1899 159.956 52.3091 160.22 53.3839C159.295 52.07 156.901 52.3547 156.309 53.8493C155.782 55.178 156.946 56.7873 158.315 56.9049C160.107 59.1235 162.159 61.4781 164.967 61.9256C165.871 62.0698 166.887 61.9642 167.548 61.3283C168.208 60.6924 168.26 59.4211 167.476 58.9459C171.004 60.351 173.073 64.1752 173.596 67.9448C174.12 71.7143 173.396 75.5283 172.918 79.304C172.441 83.0797 172.235 87.0516 173.712 90.5578C175.457 94.7004 179.474 97.6695 183.857 98.6216C188.241 99.5738 192.91 98.6432 196.878 96.5466C200.845 94.4498 204.154 91.2489 206.857 87.6604C202.201 90.9751 195.759 92.2168 190.685 89.5909Z" fill="#2F2E41"/>
<path d="M139.125 145.748L129.914 208.807L180.195 205.008L165.145 142.973L139.125 145.748Z" fill="#FFB8B8"/>
<path d="M191.725 277.605C191.68 277.822 191.624 278.037 191.555 278.248C185.753 280.352 179.818 282.071 173.791 283.394C172.52 279.205 170.085 271.274 167.952 264.787C166.209 259.492 164.671 255.16 164.134 254.619C162.643 253.131 164.134 251.146 164.134 251.146L157.765 231.296L154.871 222.279L153.88 241.222L152.439 268.662L152.399 269.432C152.399 269.432 150.415 275.388 151.407 276.382C152.399 277.377 150.415 281.351 150.415 281.351L149.844 286.564C149.117 286.602 148.394 286.629 147.664 286.649L147.416 286.728L147.212 286.663C146.23 286.694 145.245 286.713 144.257 286.721C143.839 286.724 143.421 286.728 143 286.728C142.803 286.728 142.606 286.728 142.409 286.724C139.559 286.714 136.731 286.621 133.924 286.445L132.182 272.228L130.381 257.537C130.381 257.537 132.362 253.57 130.381 251.585C129.189 250.39 129.787 248.653 130.456 247.461C130.042 245.619 129.474 242.785 128.71 238.59C128.683 238.451 128.659 238.307 128.632 238.164C128.391 236.833 128.175 235.528 127.983 234.248C127.644 231.997 127.379 229.835 127.175 227.765C126.484 221.059 126.388 214.304 126.89 207.581C127.08 205.191 127.318 203.44 127.474 202.429C127.487 202.334 127.633 201.799 127.871 200.955C128.245 199.603 128.86 197.457 129.549 195.057C129.916 193.783 130.303 192.438 130.687 191.1C131.356 188.781 132.022 186.482 132.559 184.623V184.612C133.031 182.981 133.408 181.694 133.605 181.02C133.7 180.69 133.751 180.509 133.751 180.509C133.751 180.509 133.856 180.485 134.057 180.441C134.678 180.298 136.213 179.954 138.34 179.494C140.558 179.024 143.414 178.428 146.553 177.822C149.24 177.305 152.134 176.777 155.011 176.304C156.043 176.137 157.076 175.973 158.095 175.82C164.389 174.88 170.167 174.345 172.904 174.955C173.094 174.995 173.281 175.047 173.465 175.108C173.65 175.17 173.829 175.251 173.998 175.35C174.083 175.401 174.905 178.616 175.954 182.804C175.965 182.845 175.975 182.889 175.985 182.93C176.301 184.197 176.637 185.546 176.98 186.925C177.33 188.331 177.683 189.765 178.03 191.161C179.059 195.309 180.01 199.146 180.499 201.026C180.686 201.755 180.808 202.187 180.836 202.235C181.984 204.152 182.921 208.852 183.682 214.746C184.361 220.007 184.901 226.222 185.319 232.26C185.526 235.246 185.703 238.192 185.852 240.957C186.358 250.26 186.562 257.524 186.562 257.524C186.562 257.524 187.32 263.578 188.824 266.435C189.01 266.804 189.246 267.145 189.528 267.447C190.53 268.451 190.645 269.323 190.513 269.943C190.455 270.235 190.334 270.512 190.159 270.753C190.12 270.812 190.075 270.868 190.027 270.92C189.897 271.536 189.92 272.175 190.093 272.78C190.266 273.386 190.584 273.939 191.019 274.394C191.98 275.364 191.902 276.754 191.725 277.605Z" fill="#2F2E41"/>
<path d="M175.255 125.523C175.197 125.094 175.136 124.662 175.071 124.226C175.034 123.947 174.99 123.667 174.949 123.392C174.518 120.606 176.315 118.222 173.988 116.295C173.444 115.851 173 115.296 172.687 114.667L172.154 113.591L171.172 111.596L169.025 107.257L168.655 106.511C168.55 106.3 168.43 106.096 168.295 105.902C167.894 105.318 167.371 104.827 166.763 104.465L161.43 101.277C160.606 100.787 159.943 100.066 159.521 99.2036L159.389 98.9311C158.801 97.7222 157.748 94.8311 156.502 93.5746L156.498 93.5712C156.227 93.2598 155.858 93.0498 155.452 92.9752L150.143 92.4474C149.294 92.3609 148.437 92.4972 147.657 92.8428C146.876 93.1885 146.198 93.7317 145.69 94.4191L145.544 95.0831L144.691 98.9754L144.644 98.9856C144.393 99.0435 144.141 99.1014 143.893 99.1729C138.387 100.681 136.091 119.979 136.091 119.979C136.091 119.979 132.236 126.358 133.751 130.304L136.455 136.669C136.476 136.717 136.491 136.767 136.502 136.819C136.747 137.511 136.833 138.25 136.754 138.981L136.757 139.23L136.764 139.778L136.784 141.184L136.849 145.85L136.93 151.69L137.001 156.665L137.025 157.99L132.572 177.417C132.499 178.055 132.553 178.702 132.729 179.319C132.906 179.937 133.202 180.514 133.601 181.016L133.605 181.02C133.703 181.145 133.807 181.266 133.917 181.381L133.921 181.384C134.026 181.493 134.135 181.592 134.247 181.691C134.783 182.161 135.415 182.508 136.1 182.707C136.784 182.907 137.503 182.954 138.207 182.845L138.802 182.753H138.805L147.433 181.456H147.439L148.438 181.306H148.445L158.102 179.852H158.108L159.763 179.6C159.895 179.583 160.024 179.566 160.157 179.555L168.998 178.946C169.201 178.932 169.403 178.906 169.603 178.868H169.606C170.384 178.713 171.112 178.374 171.731 177.878C172.35 177.382 172.841 176.744 173.162 176.017C173.296 175.726 173.397 175.421 173.465 175.108C173.541 174.769 173.584 174.424 173.59 174.076L173.689 165.726L174.025 138.743C174.032 137.842 174.288 136.962 174.766 136.199C175.992 134.237 175.853 130.035 175.255 125.523Z" fill="#F9A826"/>
<path d="M160.431 197.591C160.306 196.903 160.334 196.196 160.512 195.52C160.689 194.843 161.013 194.214 161.459 193.677C161.906 193.139 162.464 192.707 163.096 192.409C163.727 192.112 164.416 191.956 165.113 191.954L170.629 175.878L176.008 182.877L169.945 197.07C169.87 198.245 169.369 199.352 168.534 200.181C167.7 201.01 166.592 201.503 165.419 201.567C164.246 201.632 163.091 201.262 162.171 200.529C161.252 199.797 160.633 198.751 160.431 197.591H160.431Z" fill="#9E616A"/>
<path d="M181.478 163.768L180.238 166.901L178.505 186.281C177.967 186.417 177.453 186.634 176.98 186.925C175.953 187.561 175.171 188.528 174.761 189.666C174.351 190.805 174.337 192.05 174.722 193.197L175.231 194.73L171.444 193.562L165.218 191.644L157.877 189.383L159.121 185.341C159.408 184.412 159.467 183.428 159.29 182.471C159.114 181.515 158.708 180.616 158.108 179.852C157.96 179.662 157.8 179.481 157.629 179.31L158.095 175.82L158.37 173.746L155.011 176.303L148.441 181.306H148.438L147.569 181.97C147.569 181.97 147.521 181.793 147.433 181.456C147.266 180.805 146.954 179.559 146.553 177.822C144.568 169.168 143.106 160.402 142.175 151.571C141.971 149.582 141.794 147.546 141.652 145.479C141.505 143.35 141.397 141.191 141.339 139.019C140.85 121.335 143.56 102.796 154.888 93.3159C155.436 93.3197 155.98 93.407 156.502 93.5747C161.087 94.9879 166.118 101.894 169.596 106.835C170.418 108.003 171.152 109.059 171.773 109.907L173.278 111.96C175.332 114.766 176.754 117.985 177.446 121.396C177.592 122.118 177.706 122.849 177.789 123.589L179.433 138.75V142.656L181.478 163.768Z" fill="#F9A826"/>
<path d="M8.28442 190.945C11.2352 194.451 14.4268 197.745 17.8359 200.804L268.368 201.144C271.777 198.085 274.968 194.791 277.919 191.286L8.28442 190.945Z" fill="#CCCCCC"/>
<path d="M144.257 286.721C143.839 286.724 143.421 286.728 143 286.728C142.803 286.728 142.606 286.728 142.409 286.724C139.559 286.714 136.731 286.621 133.924 286.445L133.992 287L133.751 286.435L128.367 273.869L132.182 272.228L139.179 269.214L141.302 276.532L143.333 283.54L143.937 285.618L144.257 286.721Z" fill="#FFB6B6"/>
<path d="M119.315 272.132L117.793 284.504C114.332 283.891 110.916 283.152 107.546 282.287V272.136L119.315 272.132Z" fill="#FFB6B6"/>
<path d="M65.651 249.33V263.963C63.5858 262.631 61.5591 261.247 59.5709 259.808V249.33H65.651Z" fill="#CACACA"/>
<path d="M89.2069 246.892V254.203C89.2065 255.55 88.6729 256.842 87.7233 257.794C86.7737 258.747 85.4858 259.283 84.1424 259.284H58.844C54.0144 255.754 49.4097 251.925 45.0569 247.819C42.9951 245.877 40.9933 243.875 39.0516 241.812H84.1424C85.4856 241.813 86.7733 242.349 87.7228 243.302C88.6722 244.254 89.206 245.546 89.2069 246.892V246.892Z" fill="#3F3D56"/>
<path d="M148.496 286.384L147.664 286.649L147.416 286.727L147.212 286.663C146.23 286.693 145.245 286.713 144.257 286.721C143.839 286.724 143.421 286.727 143 286.727C142.803 286.727 142.606 286.728 142.409 286.724C139.559 286.714 136.731 286.621 133.924 286.445L133.992 287L133.751 286.435C132.745 286.367 131.743 286.295 130.745 286.206L122.841 272.936L106.574 245.629L104.689 242.465C104.689 242.465 98.259 244.372 89.1593 246.201C82.3014 247.583 73.9286 248.915 65.6509 249.351C63.6095 249.46 61.5749 249.514 59.5709 249.497C54.391 249.463 49.4148 248.976 45.0569 247.818C42.9951 245.877 40.9933 243.875 39.0516 241.811C35.7415 238.302 32.6103 234.628 29.6699 230.802C29.6303 229.398 29.7019 227.993 29.8839 226.6C29.9145 226.368 29.9451 226.133 29.9824 225.895L30.9097 210.108L37.7982 209.195L48.2803 207.806L59.6354 206.301L60.8854 216.115C60.8854 216.115 69.7269 215.665 80.9292 215.815C98.9214 216.06 122.997 217.858 126.258 225.575C126.564 226.3 126.869 227.032 127.175 227.764C133.506 242.969 139.321 259.168 143.272 270.678C144.026 272.871 144.709 274.891 145.317 276.702C147.324 282.685 148.496 286.384 148.496 286.384Z" fill="#2F2E41"/>
<path d="M129.237 234.275C129.07 235.719 128.895 237.157 128.71 238.59C127.08 251.261 124.835 263.364 122.841 272.936C121.866 277.608 120.949 281.674 120.191 284.912C119.39 284.786 118.59 284.65 117.793 284.504C114.332 283.891 110.916 283.152 107.545 282.287C106.543 282.032 105.547 281.765 104.556 281.487L106.574 245.629L107.24 233.768L127.983 234.248L129.237 234.275Z" fill="#2F2E41"/>
<path d="M162.59 178.813C163.455 178.328 164.416 178.04 165.404 177.968C166.392 177.896 167.384 178.042 168.31 178.396C169.235 178.75 170.072 179.303 170.762 180.016C171.451 180.73 171.976 181.586 172.3 182.525L196.383 182.553L189.481 193.02L167.669 191.388C166.06 191.828 164.346 191.662 162.851 190.92C161.356 190.178 160.185 188.912 159.559 187.362C158.933 185.812 158.895 184.086 159.454 182.51C160.013 180.934 161.129 179.619 162.59 178.813L162.59 178.813Z" fill="#FFB6B6"/>
<path d="M175.72 192.967L219.095 197.287L219.209 197.14C219.428 196.86 241.14 168.997 244.788 162.364C247.033 158.379 247.85 153.744 247.105 149.229L247.08 149.119L246.993 149.046C245.224 147.559 243.003 146.722 240.696 146.671C238.388 146.62 236.133 147.36 234.3 148.767C225.491 155.607 218.387 164.407 213.551 174.471L210.806 180.199L178.976 181.568L175.72 192.967Z" fill="#F9A826"/>
<path d="M158.991 271.485L152.599 286.407C151.682 286.472 150.764 286.524 149.844 286.564C149.117 286.602 148.394 286.629 147.664 286.649L147.416 286.728L147.212 286.663C146.23 286.694 145.245 286.713 144.257 286.721C143.839 286.724 143.421 286.728 143 286.728C142.803 286.728 142.606 286.728 142.409 286.724L142.834 285.267L143.333 283.54L145.316 276.702L148.18 266.83L152.439 268.662L158.991 271.485Z" fill="#FFB6B6"/>
<path d="M205.054 272.561C201.769 274.152 198.418 275.615 195 276.951L191.657 271.315L202.432 266.572L205.054 272.561Z" fill="#FFB6B6"/>
<path d="M227.788 246.947V258.818C225.801 260.289 223.774 261.708 221.708 263.074V246.947H227.788Z" fill="#CACACA"/>
<path d="M249.146 239.428C247.438 241.328 245.678 243.179 243.868 244.982C239.607 249.236 235.082 253.217 230.322 256.9H203.216C202.497 256.9 201.785 256.746 201.13 256.449C200.474 256.151 199.89 255.716 199.415 255.174L199.412 255.164C198.847 254.524 198.454 253.751 198.271 252.916L198.267 252.909C198.191 252.551 198.152 252.186 198.152 251.82V244.508C198.153 243.162 198.686 241.871 199.636 240.918C200.585 239.966 201.873 239.43 203.216 239.428H249.146Z" fill="#3F3D56"/>
<path d="M260.314 210.891L257.376 223.511C257.663 225.34 257.759 227.193 257.661 229.042C256.269 230.915 254.832 232.75 253.351 234.548C251.986 236.206 250.584 237.833 249.146 239.428C247.437 241.328 245.678 243.179 243.868 244.982C239.153 246.467 233.596 247.073 227.788 247.114C225.784 247.131 223.749 247.076 221.708 246.967C213.43 246.531 205.057 245.2 198.199 243.817C196.385 243.456 194.68 243.089 193.111 242.731C190.139 242.06 187.653 241.434 185.852 240.957C183.825 240.426 182.67 240.082 182.67 240.082L174.956 253.032L167.952 264.787L155.191 286.21C154.328 286.288 153.464 286.354 152.599 286.408C151.682 286.472 150.764 286.524 149.844 286.564C149.117 286.602 148.394 286.629 147.664 286.649L147.416 286.728L147.212 286.663L143.937 285.618L142.834 285.267L138.863 284C138.863 284 139.749 281.201 141.302 276.532C141.872 274.819 142.531 272.851 143.272 270.678C145.945 262.826 149.651 252.279 153.879 241.222C155.133 237.94 156.43 234.609 157.765 231.296C158.859 228.575 159.973 225.864 161.101 223.191C163.061 218.557 172.531 216.057 183.682 214.746C184.249 214.681 184.82 214.617 185.394 214.555C191.076 213.956 197.106 213.646 202.744 213.503C205.567 213.432 208.291 213.404 210.825 213.401C211.643 213.401 212.439 213.403 213.213 213.408H213.216C215.305 213.418 217.227 213.449 218.919 213.483C219.248 213.489 219.568 213.5 219.88 213.507H219.884C220.094 213.51 220.301 213.517 220.505 213.52C224.204 213.615 226.473 213.731 226.473 213.731L227.353 206.812L227.533 205.416L227.703 204.087V204.084L227.723 203.917L227.862 203.914L230.308 203.866L250.865 203.464L262.094 203.243L260.314 210.891Z" fill="#2F2E41"/>
<path d="M207.588 271.301C206.749 271.73 205.903 272.153 205.054 272.561C201.769 274.152 198.418 275.615 195 276.951C194.025 277.336 193.047 277.707 192.058 278.064C191.949 277.911 191.837 277.758 191.725 277.605C187.011 271.117 181.019 262.557 174.956 253.032C172.419 249.048 169.868 244.893 167.391 240.65L185.319 232.259L187.33 231.32L193.111 242.731L198.267 252.909L199.415 255.174L207.588 271.301Z" fill="#2F2E41"/>
<path d="M233.61 129.419C242.732 129.419 250.127 122.006 250.127 112.861C250.127 103.716 242.732 96.3025 233.61 96.3025C224.489 96.3025 217.094 103.716 217.094 112.861C217.094 122.006 224.489 129.419 233.61 129.419Z" fill="#FFB6B6"/>
<path d="M233.064 128.701C236.925 130.558 241.678 129.929 245.365 127.744C249.052 125.558 251.765 121.994 253.661 118.144C255.05 115.324 256.059 112.094 255.255 109.055C254.45 106.015 251.243 103.468 248.237 104.369C250.296 102.706 250.056 99.2785 248.392 97.2189C246.728 95.1594 244.103 94.169 241.567 93.4226C237.885 92.3393 234.017 91.5747 230.221 92.1288C226.424 92.6829 222.686 94.7436 220.9 98.1476C219.659 98.4679 218.348 98.3668 217.172 97.8602C215.995 97.3536 215.019 96.47 214.397 95.3479C213.983 96.4266 213.936 97.612 214.261 98.7206C214.587 99.8292 215.269 100.799 216.2 101.481L211.058 98.6838C209.747 100.505 210.938 103.284 212.928 104.315C214.918 105.347 217.323 105.072 219.495 104.521C221.667 103.969 219.105 108.568 221.345 108.612C223.585 108.656 226.008 109.832 226.649 111.984C226.985 113.111 226.789 114.321 226.888 115.494C226.987 116.666 227.548 117.966 228.681 118.272C229.397 118.465 230.18 118.209 230.89 118.423C231.77 118.689 232.307 119.633 232.384 120.551C232.461 121.469 232.174 122.374 231.891 123.251C230.77 126.715 234.367 124.773 233.246 128.237L233.064 128.701Z" fill="#2F2E41"/>
<path d="M265.47 177.611C265.335 163.935 264.716 154.615 263.636 149.905C260.736 137.244 247.336 134.936 245.236 134.65C245.013 134.053 244.669 133.509 244.227 133.051C243.784 132.593 243.253 132.231 242.665 131.988C242.077 131.745 241.446 131.626 240.81 131.638C240.174 131.65 239.548 131.793 238.97 132.058L229.449 136.431C227.517 137.32 225.789 138.599 224.371 140.186C222.953 141.774 221.875 143.637 221.205 145.659L219.792 149.984L219.082 179.007L221.426 191.215L221.429 191.222L223.009 199.446L221.922 201.081L215.716 210.411L215.611 210.575L215.607 210.578L215.336 210.983C215.713 211.191 216.086 211.395 216.453 211.6C217.404 212.124 218.331 212.638 219.235 213.142C219.452 213.265 219.666 213.384 219.88 213.506H219.884C220.02 213.581 220.155 213.656 220.288 213.731C223.678 215.631 226.763 217.392 229.544 219.013C229.931 219.238 230.315 219.462 230.692 219.684C243.531 227.213 250.039 231.824 253.351 234.548C254.832 232.75 256.269 230.914 257.662 229.042C258.925 227.349 260.149 225.627 261.333 223.876C261.541 222.507 261.68 221.138 261.816 219.796C261.979 218.182 262.149 216.51 262.434 214.865C262.56 214.136 262.077 213.445 261.612 212.778C261.18 212.155 260.773 211.569 260.858 211.017C260.946 210.449 261.571 209.829 262.179 209.226C262.841 208.565 263.528 207.884 263.626 207.166C263.898 205.163 264.139 203.154 264.35 201.138C264.696 197.859 264.962 194.57 265.148 191.27C265.409 186.713 265.517 182.161 265.47 177.611Z" fill="#F9A826"/>
<path d="M202.599 225.885C202.879 224.932 203.364 224.052 204.019 223.308C204.675 222.563 205.486 221.972 206.394 221.575C207.303 221.179 208.287 220.987 209.277 221.013C210.268 221.039 211.24 221.282 212.127 221.726L229.353 204.852L231.726 217.171L215.004 231.306C214.162 232.75 212.821 233.833 211.235 234.352C209.649 234.87 207.929 234.788 206.4 234.119C204.871 233.451 203.639 232.244 202.939 230.726C202.238 229.208 202.117 227.486 202.599 225.885L202.599 225.885Z" fill="#FFB6B6"/>
<path d="M221.858 226.787L255.862 199.447L255.841 199.262C255.802 198.908 251.867 163.771 249.844 156.473C248.667 152.052 246.016 148.167 242.332 145.464L242.238 145.403L242.125 145.411C239.824 145.59 237.652 146.55 235.968 148.132C234.285 149.715 233.189 151.825 232.862 154.116C231.342 165.183 232.408 176.452 235.977 187.035L238.014 193.053L216.229 216.359L221.858 226.787Z" fill="#F9A826"/>
<path d="M47.7281 129.122C55.8675 129.122 62.4657 122.507 62.4657 114.347C62.4657 106.187 55.8675 99.572 47.7281 99.572C39.5887 99.572 32.9905 106.187 32.9905 114.347C32.9905 122.507 39.5887 129.122 47.7281 129.122Z" fill="#A0616A"/>
<path d="M27.9278 226.884L27.8474 226.771C23.5543 220.745 30.0112 206.265 30.985 204.166C29.8286 203.79 28.838 203.024 28.182 201.998C27.526 200.971 27.2451 199.749 27.3871 198.538L27.8069 194.961L28.2445 191.452L25.1096 188.309L25.1008 188.23L23.2967 172.404L20.6736 161.893C19.6852 157.919 19.7695 153.753 20.9176 149.823C22.0658 145.893 24.2366 142.34 27.207 139.528L33.2703 138.563L40.6391 131.445H52.5221L56.5965 135.348C64.6069 141.931 66.5086 139.071 75.5413 151.463L69.0738 168.546L72.6889 193.741L72.6911 198.301L74.5739 200.398C75.2521 201.154 75.745 202.058 76.0131 203.038C76.2813 204.019 76.3174 205.048 76.1185 206.045L75.8709 207.286C76.8279 207.698 77.6725 208.333 78.3341 209.139C78.9956 209.945 79.4547 210.898 79.6729 211.919L80.3342 215.012C80.9 215.761 84.6344 220.753 84.6344 222.118C84.6344 222.322 84.4835 222.52 84.1598 222.74C81.6148 224.468 67.5485 227.99 61.3229 225.492C54.6915 222.834 28.3304 226.822 28.0648 226.863L27.9278 226.884Z" fill="#3F3D56"/>
<path d="M20.4407 166.949L32.6947 164.544C37.2265 171.329 39.6594 189.882 39.6594 189.882L53.2075 218.05C54.0402 218.557 54.724 219.277 55.1892 220.135C55.6544 220.993 55.8844 221.96 55.8558 222.936C55.8271 223.913 55.5409 224.864 55.0262 225.694C54.5114 226.523 53.7866 227.201 52.9256 227.658C52.0646 228.115 51.098 228.336 50.1245 228.296C49.1509 228.257 48.205 227.96 47.3832 227.435C46.5615 226.911 45.8931 226.177 45.4462 225.309C44.9994 224.441 44.7899 223.469 44.8393 222.494L27.1691 189.119L20.4407 166.949Z" fill="#A0616A"/>
<path d="M20.372 169.864L20.0236 151.604L25.7903 143.87C26.9279 142.356 28.4653 141.19 30.2287 140.506C31.9922 139.822 33.9114 139.646 35.7694 139.998V139.998C38.2849 140.492 40.5195 141.925 42.0213 144.007C43.5231 146.09 44.1801 148.667 43.8594 151.216C42.8806 158.948 40.6585 168.624 35.631 170.813L35.58 170.835L40.7906 189.104L21.4676 191.81L20.372 169.864Z" fill="#3F3D56"/>
<path d="M93.1501 168.25C93.1501 168.25 78.4444 156.726 70.4686 155.071L63.4093 165.397L82.5009 177.126L119.671 187.901C120.322 188.626 121.153 189.165 122.079 189.464C123.005 189.763 123.993 189.811 124.943 189.603C125.894 189.395 126.772 188.939 127.49 188.28C128.208 187.622 128.739 186.785 129.029 185.854C129.32 184.924 129.36 183.932 129.145 182.981C128.93 182.03 128.468 181.153 127.805 180.439C127.143 179.725 126.304 179.199 125.373 178.915C124.442 178.631 123.453 178.599 122.506 178.822L93.1501 168.25Z" fill="#A0616A"/>
<path d="M67.2777 170.566L51.9522 160.694L48.752 151.586C48.1303 149.796 48.0204 147.867 48.4348 146.017C48.8492 144.167 49.7713 142.471 51.097 141.119C52.9063 139.299 55.3377 138.235 57.8993 138.143C60.461 138.051 62.9619 138.938 64.8963 140.624C70.7589 145.743 78.3141 147.458 77.3302 152.864L80.1527 153.277L94.5863 164.267L86.0748 181.867L67.2777 170.566Z" fill="#3F3D56"/>
<path d="M31.0115 104.639C32.6664 102.072 35.7719 100.362 38.7824 100.842C39.0626 98.9163 39.8646 97.1041 41.1009 95.6032C42.3373 94.1024 43.9607 92.9703 45.7944 92.3304C47.6281 91.6904 49.6017 91.5671 51.5005 91.9739C53.3992 92.3806 55.1503 93.3018 56.5629 94.6371C57.4493 93.9301 58.7378 93.8929 59.7899 94.3133C60.8261 94.7857 61.7275 95.5111 62.4116 96.4231C64.1391 98.5829 65.2501 101.172 65.6264 103.914C66.0027 106.657 65.6301 109.451 64.5484 111.998C64.9163 110.657 63.5759 109.395 62.2215 109.094C60.8673 108.793 59.4466 109.078 58.0732 108.882C56.3129 108.631 54.7306 107.607 52.9676 107.377C51.4859 107.183 49.9958 107.564 48.5509 107.946C47.106 108.328 45.6198 108.717 44.136 108.54C42.6521 108.364 40.7407 114.001 40.7663 117.972C40.7712 118.725 40.6166 119.691 39.8831 119.85C38.9797 120.047 38.4563 118.797 37.5964 118.457C36.8304 118.153 35.9121 118.715 35.6454 119.497C35.537 119.896 35.5254 120.316 35.6115 120.721C35.6976 121.126 35.879 121.504 36.1405 121.825C36.669 122.46 37.2964 123.006 37.9985 123.441L37.6444 123.736C37.0553 124.516 35.8335 124.55 34.9845 124.067C34.1356 123.585 33.5776 122.726 33.0747 121.887C31.504 119.268 30.1262 116.477 29.5718 113.472C29.0175 110.467 29.3568 107.206 31.0115 104.639Z" fill="#2F2E41"/>
<path opacity="0.2" d="M160.437 129.469C161.932 135.713 162.622 142.124 162.489 148.543C162.362 154.964 161.425 161.343 159.701 167.528C158.729 171.021 157.502 174.437 156.031 177.75C155.766 178.346 156.644 178.866 156.911 178.266C159.567 172.296 161.445 166.009 162.499 159.558C163.557 153.106 163.794 146.546 163.205 140.034C162.872 136.383 162.275 132.762 161.419 129.197C161.266 128.559 160.283 128.829 160.437 129.469H160.437Z" fill="black"/>
<path opacity="0.2" d="M255.575 173.161L247.057 194.008C245.686 197.363 244.356 200.738 242.929 204.07C241.645 207.07 240.18 210.082 238.018 212.555C235.835 215.052 232.9 217.078 229.546 217.474C228.902 217.55 228.895 218.572 229.546 218.496C232.609 218.134 235.355 216.607 237.573 214.495C239.971 212.212 241.66 209.304 243.04 206.319C244.578 202.992 245.885 199.552 247.271 196.16L251.626 185.502L256.558 173.433C256.806 172.825 255.821 172.56 255.575 173.161V173.161Z" fill="black"/>
<path d="M154.603 192.083C154.753 192.52 155.037 192.898 155.414 193.163C155.791 193.428 156.243 193.566 156.703 193.558L165.702 193.326C166.166 193.316 166.614 193.157 166.98 192.871C167.347 192.585 167.611 192.188 167.733 191.74L169.006 178.089C169.458 178.294 169.95 178.395 170.446 178.385C170.877 178.374 171.301 178.279 171.695 178.103C172.089 177.928 172.445 177.677 172.742 177.364C173.039 177.05 173.271 176.682 173.426 176.279C173.581 175.875 173.655 175.446 173.644 175.014C173.633 174.582 173.538 174.156 173.363 173.761C173.188 173.367 172.937 173.01 172.625 172.712C172.313 172.415 171.945 172.181 171.543 172.026C171.141 171.871 170.712 171.797 170.281 171.807C170.083 171.807 169.885 171.827 169.692 171.869C169.481 171.64 169.225 171.458 168.939 171.335C168.654 171.212 168.347 171.15 168.036 171.153L154.194 171.511C154.08 171.515 153.965 171.529 153.853 171.554C153.549 171.61 153.261 171.732 153.009 171.909C152.756 172.087 152.544 172.317 152.387 172.583C152.23 172.85 152.132 173.147 152.099 173.455C152.067 173.763 152.1 174.074 152.198 174.368L154.603 192.083ZM169.268 177.162L170.174 173.909C170.277 173.533 170.279 173.137 170.181 172.76C170.225 172.76 170.263 172.739 170.307 172.739C170.929 172.726 171.53 172.96 171.979 173.391C172.428 173.822 172.688 174.413 172.703 175.036C172.717 175.659 172.485 176.262 172.056 176.714C171.628 177.165 171.038 177.427 170.417 177.444C170.016 177.456 169.618 177.359 169.268 177.162V177.162Z" fill="#2F2E41"/>
<path d="M153.853 171.553C154.148 173.244 157.463 174.432 161.45 174.226C165.116 174.056 168.113 172.766 168.662 171.236C168.459 171.176 168.248 171.148 168.036 171.153L154.194 171.511C154.08 171.515 153.965 171.529 153.853 171.553V171.553Z" fill="#3F3D56"/>
<path d="M124.631 173.687C124.729 173.393 124.762 173.082 124.73 172.774C124.697 172.466 124.599 172.169 124.442 171.902C124.285 171.636 124.073 171.406 123.82 171.228C123.567 171.05 123.28 170.929 122.976 170.872C122.864 170.848 122.749 170.834 122.635 170.83L108.793 170.472C108.482 170.468 108.175 170.531 107.89 170.654C107.604 170.777 107.348 170.959 107.137 171.188C106.944 171.146 106.746 171.126 106.548 171.126C105.678 171.104 104.835 171.43 104.204 172.031C103.573 172.632 103.207 173.46 103.185 174.333C103.163 175.205 103.488 176.05 104.087 176.682C104.687 177.315 105.513 177.682 106.383 177.704C106.879 177.714 107.371 177.613 107.822 177.408L109.096 191.059C109.218 191.507 109.482 191.904 109.849 192.19C110.215 192.476 110.663 192.635 111.127 192.644L120.126 192.877C120.586 192.885 121.038 192.747 121.415 192.482C121.792 192.217 122.076 191.839 122.226 191.402L124.631 173.687ZM106.412 176.763C105.79 176.746 105.201 176.484 104.773 176.032C104.344 175.581 104.112 174.978 104.126 174.355C104.141 173.732 104.401 173.141 104.85 172.71C105.299 172.279 105.9 172.045 106.522 172.057C106.566 172.058 106.604 172.078 106.648 172.079C106.55 172.456 106.552 172.852 106.655 173.228L107.561 176.481C107.211 176.678 106.813 176.775 106.412 176.763V176.763Z" fill="#2F2E41"/>
<path d="M122.976 170.873C122.681 172.563 119.366 173.751 115.379 173.545C111.713 173.375 108.716 172.085 108.167 170.555C108.37 170.495 108.581 170.467 108.793 170.472L122.635 170.83C122.749 170.834 122.864 170.849 122.976 170.873V170.873Z" fill="#3F3D56"/>
<path d="M109.858 141.219C110.552 140.711 111.348 140.362 112.19 140.196C113.033 140.029 113.902 140.051 114.735 140.258C115.569 140.465 116.347 140.852 117.015 141.393C117.683 141.934 118.225 142.616 118.602 143.389L139.326 140.876L134.485 150.608L115.547 151.503C114.209 152.052 112.716 152.089 111.352 151.609C109.988 151.128 108.847 150.162 108.146 148.894C107.445 147.627 107.232 146.145 107.548 144.73C107.863 143.316 108.685 142.066 109.858 141.219L109.858 141.219Z" fill="#9E616A"/>
<path d="M177.446 121.396C176.834 122.598 176.09 123.998 175.255 125.523C172.32 130.9 168.288 137.84 165.184 143.122C162.531 147.627 160.551 150.93 160.496 151.022L160.411 151.159L142.175 151.571L138.262 151.659L136.93 151.69L122.64 152.013L122.776 151.162L124.111 142.724L124.247 141.862L136.764 139.778L141.339 139.019L151.488 137.33L153.251 132.113C156.356 122.943 161.545 114.623 168.407 107.809C168.608 107.615 168.811 107.431 169.025 107.257C169.212 107.107 169.402 106.964 169.596 106.835C170.418 108.003 171.152 109.059 171.773 109.907L173.278 111.96C175.333 114.766 176.755 117.985 177.446 121.396V121.396Z" fill="#F9A826"/>
<path d="M101.615 152.581C101.764 153.018 102.048 153.396 102.426 153.661C102.803 153.926 103.254 154.064 103.715 154.056L112.713 153.824C113.177 153.815 113.626 153.655 113.992 153.37C114.358 153.084 114.622 152.687 114.745 152.238L116.018 138.587C116.47 138.792 116.962 138.894 117.458 138.884C118.328 138.862 119.154 138.494 119.753 137.862C120.353 137.23 120.678 136.384 120.656 135.512C120.634 134.64 120.268 133.812 119.637 133.211C119.006 132.609 118.163 132.284 117.293 132.306C117.095 132.305 116.897 132.326 116.703 132.367C116.493 132.139 116.236 131.957 115.951 131.833C115.666 131.71 115.358 131.648 115.048 131.651L101.206 132.009C101.091 132.014 100.977 132.028 100.865 132.052C100.561 132.109 100.273 132.23 100.02 132.407C99.7676 132.585 99.5556 132.815 99.3987 133.082C99.2419 133.348 99.1439 133.646 99.1112 133.953C99.0786 134.261 99.1121 134.572 99.2095 134.866L101.615 152.581ZM116.279 137.66L117.186 134.407C117.289 134.031 117.291 133.635 117.192 133.258C117.236 133.258 117.275 133.237 117.319 133.237C117.941 133.224 118.542 133.459 118.991 133.889C119.44 134.32 119.7 134.912 119.714 135.535C119.729 136.157 119.497 136.761 119.068 137.212C118.64 137.663 118.05 137.926 117.429 137.942C117.027 137.955 116.63 137.857 116.279 137.66Z" fill="#CCCCCC"/>
<path d="M100.865 132.052C101.16 133.742 104.475 134.931 108.462 134.724C112.128 134.555 115.125 133.264 115.674 131.735C115.471 131.674 115.26 131.646 115.048 131.651L101.206 132.009C101.091 132.013 100.977 132.028 100.865 132.052V132.052Z" fill="#3F3D56"/>
</g>
<defs>
<clipPath id="clip0_9_237">
<rect width="286" height="287" fill="white"/>
</clipPath>
</defs>
</svg>
