<svg width="76" height="68" viewBox="0 0 76 68" fill="none" xmlns="http://www.w3.org/2000/svg">
<path d="M32.7522 12.2059C33.7665 8.36073 33.5553 6.26011 31.5956 5.24106C29.638 4.2239 32.3004 0.191256 35.7304 3.739C39.1625 7.28674 38.717 10.592 37.115 12.9313C35.5108 15.2687 32.2293 14.1815 32.7522 12.2059V12.2059ZM31.7483 17.7955C29.8325 21.3508 28.1949 22.8491 25.9675 22.5062C23.7422 22.1653 22.9663 26.8098 28.1071 26.0464C33.2458 25.2831 35.2201 22.474 35.6258 19.7465C36.0295 17.0189 32.7334 15.9695 31.7483 17.7955ZM55.457 29.6548C51.1235 27.0465 44.2008 32.3634 43.5378 33.9734C42.8748 35.5835 47.1372 40.5291 45.9346 43.3305C44.7279 46.1282 48.3231 46.6794 49.9502 44.2606C51.5774 41.8398 50.586 37.4189 50.2765 36.3639C49.9669 35.3088 54.8547 34.0549 57.9542 36.2938C61.0517 38.5289 57.2787 30.7534 55.457 29.6548V29.6548ZM57.6907 28.1054C54.4573 24.4137 59.7299 17.7216 61.4428 16.9867C63.1599 16.2537 66.822 17.7481 69.8023 16.4279C72.7806 15.1077 73.4519 18.0455 71.1618 19.9776C68.5956 22.1407 66.4748 22.5062 64.6385 22.868C63.461 23.0991 64.5716 26.7188 64.6197 30.3878C64.6678 33.7954 59.0501 29.6586 57.6907 28.1054Z" fill="url(#paint0_linear_7_2)"/>
<path d="M32.0389 5.24112C32.0389 5.99878 31.3613 6.61249 30.5247 6.61249C29.6902 6.61249 29.0105 5.99878 29.0105 5.24112C29.0105 4.48536 29.6882 3.86976 30.5247 3.86976C31.3613 3.86976 32.0389 4.48536 32.0389 5.24112ZM25.7667 22.0934C25.7667 22.8491 25.089 23.4647 24.2525 23.4647C23.418 23.4647 22.7382 22.851 22.7382 22.0934C22.7382 21.3376 23.4159 20.722 24.2525 20.722C25.089 20.722 25.7667 21.3357 25.7667 22.0934ZM25.1434 25.2699C25.1434 26.0275 24.4658 26.6412 23.6292 26.6412C22.7947 26.6412 22.115 26.0275 22.115 25.2699C22.115 24.5141 22.7926 23.8985 23.6292 23.8985C24.4658 23.8985 25.1434 24.5122 25.1434 25.2699ZM28.1698 26.6412C28.1698 27.397 27.4921 28.0126 26.6555 28.0126C25.821 28.0126 25.1413 27.3989 25.1413 26.6412C25.1413 25.8836 25.819 25.2699 26.6555 25.2699C27.4921 25.2699 28.1698 25.8836 28.1698 26.6412ZM46.104 43.4007C46.3717 44.1167 45.9513 44.899 45.1586 45.1433C44.3702 45.3876 43.5085 45.0012 43.2387 44.2853C42.9689 43.5693 43.3893 42.7889 44.1799 42.5445C44.9725 42.3002 45.8342 42.6847 46.104 43.4007V43.4007ZM47.7186 45.8025C47.9863 46.5185 47.5659 47.2988 46.7733 47.5432C45.9848 47.7856 45.1231 47.403 44.8533 46.687C44.5835 45.9729 45.006 45.1907 45.7965 44.9482C46.5892 44.702 47.4509 45.0865 47.7186 45.8025ZM51.1214 45.3479C51.3933 46.062 50.9687 46.8443 50.1761 47.0886C49.3897 47.3329 48.528 46.9484 48.2582 46.2343C47.9884 45.5183 48.4109 44.7361 49.1993 44.4936C49.992 44.2474 50.8537 44.6319 51.1214 45.3479V45.3479ZM71.6239 15.5112C71.6239 16.267 70.9442 16.8826 70.1076 16.8826C69.271 16.8826 68.5934 16.267 68.5934 15.5112C68.5934 14.7554 69.271 14.1379 70.1076 14.1379C70.9442 14.1379 71.6239 14.7554 71.6239 15.5112ZM74.7695 16.8845C74.7695 17.6402 74.0919 18.2558 73.2532 18.2558C72.4208 18.2558 71.7411 17.6402 71.7411 16.8845C71.7411 16.1287 72.4187 15.5131 73.2532 15.5131C74.0919 15.5112 74.7695 16.1287 74.7695 16.8845ZM74.0458 20.1348C74.0458 20.8906 73.3682 21.5062 72.5295 21.5062C71.695 21.5062 71.0153 20.8906 71.0153 20.1348C71.0153 19.3791 71.693 18.7635 72.5295 18.7635C73.3682 18.7635 74.0458 19.3791 74.0458 20.1348ZM32.4426 2.30709C32.4426 3.06285 31.765 3.67845 30.9284 3.67845C30.0939 3.67845 29.4142 3.06475 29.4142 2.30709C29.4142 1.54942 30.0918 0.93572 30.9284 0.93572C31.765 0.93572 32.4426 1.54942 32.4426 2.30709ZM35.7283 1.41873C35.7283 2.17639 35.0506 2.79009 34.2141 2.79009C33.3796 2.79009 32.6998 2.17639 32.6998 1.41873C32.6998 0.662962 33.3775 0.0473633 34.2141 0.0473633C35.0506 0.0492574 35.7283 0.662962 35.7283 1.41873Z" fill="url(#paint1_linear_7_2)"/>
<path d="M0.43507 9.94809C0.987214 7.95355 10.175 1.00202 18.5094 2.30709C22.7425 2.97194 24.6625 8.66007 29.18 8.80024C52.7905 9.53706 75.7609 29.8973 68.5977 49.318C65.4479 57.855 56.8479 65.9828 36.2617 58.7907C32.1708 57.3625 27.9586 55.0308 19.8981 56.4666C13.9333 57.533 13.3122 62.4502 14.0358 64.9846C14.6047 66.9696 13.6991 67.9811 12.5697 66.4222C10.0056 62.8858 9.81524 58.1883 13.9145 55.1425C22.0963 49.0604 33.2563 52.7105 41.3899 55.0308C54.9447 58.9024 62.1309 48.1152 54.6623 35.4926C47.3359 23.1049 34.141 19.7257 25.3715 18.7938C22.9287 18.5343 17.7607 22.673 14.1466 22.0934C6.57349 20.8755 0.0376934 11.3952 0.43507 9.94809Z" fill="url(#paint2_linear_7_2)"/>
<path d="M0.435059 9.94809C0.987203 7.95355 10.175 1.00202 18.5094 2.30709C22.7425 2.97193 24.6625 8.66007 29.18 8.80023C52.7905 9.53706 75.7609 29.8973 68.5977 49.318C65.4479 57.8549 56.8479 65.9827 36.2617 58.7906C32.1708 57.3624 27.9586 55.0307 19.8981 56.4665C13.9333 57.5329 13.3121 62.4501 14.0358 64.9845C14.316 65.9619 14.2387 66.7006 13.9542 67.0169C12.0259 64.5905 11.1057 58.7982 15.3367 55.9096C22.7383 50.8579 33.2563 55.6615 43.1551 57.8833C64.5946 62.6964 68.6353 42.7396 59.6923 29.7079C48.846 13.8955 14.6402 10.1337 0.435059 9.94809Z" fill="url(#paint3_linear_7_2)"/>
<path d="M14.6402 6.81894C15.7952 6.81894 16.7316 5.9709 16.7316 4.92479C16.7316 3.87868 15.7952 3.03064 14.6402 3.03064C13.4851 3.03064 12.5487 3.87868 12.5487 4.92479C12.5487 5.9709 13.4851 6.81894 14.6402 6.81894Z" fill="#292F33"/>
<path d="M12.5487 20.078C13.7038 20.078 14.6402 19.2299 14.6402 18.1838C14.6402 17.1377 13.7038 16.2897 12.5487 16.2897C11.3937 16.2897 10.4573 17.1377 10.4573 18.1838C10.4573 19.2299 11.3937 20.078 12.5487 20.078Z" fill="#292F33"/>
<defs>
<linearGradient id="paint0_linear_7_2" x1="48.3907" y1="2.30627" x2="48.3907" y2="45.7909" gradientUnits="userSpaceOnUse">
<stop stop-color="#D9194C"/>
<stop offset="0.5" stop-color="#EC454B"/>
<stop offset="1" stop-color="#FF7249"/>
</linearGradient>
<linearGradient id="paint1_linear_7_2" x1="48.4422" y1="0.0473633" x2="48.4422" y2="47.616" gradientUnits="userSpaceOnUse">
<stop stop-color="#D9194C"/>
<stop offset="0.5" stop-color="#EC454B"/>
<stop offset="1" stop-color="#FF7249"/>
</linearGradient>
<linearGradient id="paint2_linear_7_2" x1="35.1735" y1="2.14514" x2="35.1735" y2="67.1836" gradientUnits="userSpaceOnUse">
<stop stop-color="#D9194C"/>
<stop offset="0.5" stop-color="#EC454B"/>
<stop offset="1" stop-color="#FF7249"/>
</linearGradient>
<linearGradient id="paint3_linear_7_2" x1="35.1821" y1="2.14514" x2="35.1821" y2="67.0169" gradientUnits="userSpaceOnUse">
<stop stop-color="#D9194C"/>
<stop offset="0.473958" stop-color="#EB434B"/>
<stop offset="1" stop-color="#FF7249"/>
</linearGradient>
</defs>
</svg>
