<svg xmlns="http://www.w3.org/2000/svg" viewBox="0 0 17.64 17.65"><defs><style>.cls-1{fill:#5CB6F9;}</style></defs><g id="Layer_2" data-name="Layer 2"><g id="Camada_1" data-name="Camada 1"><path class="cls-1" d="M17.64,4.92a4.58,4.58,0,0,0-.54-2.21A4.88,4.88,0,0,0,12.63,0H5a6.38,6.38,0,0,0-.87.07A5,5,0,0,0,0,4.94v7.73a5.1,5.1,0,0,0,.08.86A4.92,4.92,0,0,0,5,17.65h7.71a5.72,5.72,0,0,0,1-.09,5,5,0,0,0,4-4.83V4.92Zm-8.81,11H4.94a3.21,3.21,0,0,1-3-2.11,3.07,3.07,0,0,1-.2-1.07V5A3.22,3.22,0,0,1,5,1.77h7.73a3.16,3.16,0,0,1,3.15,2.72,2.89,2.89,0,0,1,0,.5v7.65a3.18,3.18,0,0,1-2.64,3.2l-.41,0h-4Z"/><path class="cls-1" d="M12.23,5.43A4.75,4.75,0,0,0,8.83,4h0a4.82,4.82,0,1,0,0,9.63h0a4.81,4.81,0,0,0,3.41-8.21Zm-3.4,6.45h0a3.05,3.05,0,1,1,3-3.05,3,3,0,0,1-3,3.05Z"/><path class="cls-1" d="M13.58,5.2h0a1.13,1.13,0,0,0,.8-1.93,1.16,1.16,0,0,0-.81-.33h0a1.13,1.13,0,0,0-1.11,1.14,1.11,1.11,0,0,0,.33.79A1.14,1.14,0,0,0,13.58,5.2Z"/></g></g></svg>