<svg xmlns="http://www.w3.org/2000/svg" viewBox="0 0 22.03 18.35"><defs><style>.cls-1{fill:#5CB6F9;}</style></defs><g id="Layer_2" data-name="Layer 2"><g id="Camada_1" data-name="Camada 1"><path class="cls-1" d="M6.56,14.38a4.79,4.79,0,0,1-4.23-3.2H4.06L4.13,11A4.76,4.76,0,0,1,.69,6.55l1.86.53A5.49,5.49,0,0,1,.76,3.56,4.59,4.59,0,0,1,1.35.89a13.33,13.33,0,0,0,9.43,4.8,14.5,14.5,0,0,1,.16-2.13A4.58,4.58,0,0,1,18.27,1a1.19,1.19,0,0,0,1.35.24l2-.75c-.11.71-.27.93-1.74,2.4L22,2.39a1.91,1.91,0,0,1-.21.51,3.94,3.94,0,0,1-.83.85,2.39,2.39,0,0,0-1,2.12c-.52,8.37-8.28,14.74-17.57,11.71A23.34,23.34,0,0,1,0,16.47c1.26-.18,2.4-.27,3.5-.52A7,7,0,0,0,6.56,14.38Z"/></g></g></svg>